<mxfile host="app.diagrams.net" agent="Mozilla/5.0 (Windows NT 10.0; Win64; x64) AppleWebKit/537.36 (KHTML, like Gecko) Chrome/137.0.0.0 Safari/537.36 Edg/137.0.0.0" version="27.1.6">
  <diagram name="Page-1" id="iP9OPKTwnxqzhH_46NGT">
    <mxGraphModel dx="2633" dy="1028" grid="1" gridSize="10" guides="1" tooltips="1" connect="1" arrows="1" fold="1" page="1" pageScale="1" pageWidth="1100" pageHeight="850" math="0" shadow="0">
      <root>
        <mxCell id="0" />
        <mxCell id="1" parent="0" />
        <mxCell id="tbvszCSb3UBkYFBP10Zx-1" value="" style="rounded=1;whiteSpace=wrap;html=1;movable=0;resizable=0;rotatable=0;deletable=0;editable=0;locked=1;connectable=0;" parent="1" vertex="1">
          <mxGeometry x="10" y="80" width="630" height="390" as="geometry" />
        </mxCell>
        <mxCell id="h55l8Zkcb7cQgNLIwGVd-1" value="" style="rounded=1;whiteSpace=wrap;html=1;sketch=1;curveFitting=1;jiggle=2;" parent="1" vertex="1">
          <mxGeometry x="10" y="560" width="830" height="260" as="geometry" />
        </mxCell>
        <mxCell id="h55l8Zkcb7cQgNLIwGVd-2" value="&lt;div&gt;&lt;font face=&quot;Lucida Console&quot;&gt;Structural 3.04&lt;/font&gt;&lt;/div&gt;" style="text;html=1;align=center;verticalAlign=middle;whiteSpace=wrap;rounded=0;fontStyle=5;fontSize=17;" parent="1" vertex="1">
          <mxGeometry x="260" y="560" width="330" height="70" as="geometry" />
        </mxCell>
        <mxCell id="h55l8Zkcb7cQgNLIwGVd-3" value="&lt;pre&gt;&lt;b style=&quot;&quot;&gt;&lt;u style=&quot;&quot;&gt;&lt;font face=&quot;Lucida Console&quot; style=&quot;font-size: 17px;&quot;&gt;** NOT TO SCALE **&lt;/font&gt;&lt;/u&gt;&lt;/b&gt;&lt;/pre&gt;" style="text;strokeColor=none;fillColor=none;align=center;verticalAlign=middle;spacingLeft=4;spacingRight=4;overflow=hidden;points=[[0,0.5],[1,0.5]];portConstraint=eastwest;rotatable=0;whiteSpace=wrap;html=1;" parent="1" vertex="1">
          <mxGeometry x="285" y="780" width="280" height="40" as="geometry" />
        </mxCell>
        <mxCell id="h55l8Zkcb7cQgNLIwGVd-4" value="&lt;u&gt;&lt;font face=&quot;Lucida Console&quot; style=&quot;font-size: 18px;&quot;&gt;CMU POOL&lt;/font&gt;&lt;/u&gt;&lt;div style=&quot;text-align: left;&quot;&gt;&lt;span style=&quot;font-size: 10px;&quot;&gt;&lt;font face=&quot;Lucida Console&quot;&gt;Cruz Wootten&lt;/font&gt;&lt;/span&gt;&lt;/div&gt;&lt;div style=&quot;text-align: left;&quot;&gt;&lt;font face=&quot;Lucida Console&quot;&gt;&lt;span style=&quot;font-size: 10px; background-color: transparent; color: light-dark(rgb(0, 0, 0), rgb(255, 255, 255));&quot;&gt;17575 Parrot Drive&amp;nbsp;&lt;/span&gt;&lt;br&gt;&lt;span style=&quot;font-size: 10px; background-color: transparent; color: light-dark(rgb(0, 0, 0), rgb(255, 255, 255));&quot;&gt;Reno, Nevada&lt;/span&gt;&lt;/font&gt;&lt;/div&gt;&lt;div style=&quot;text-align: left;&quot;&gt;&lt;span style=&quot;background-color: transparent; color: light-dark(rgb(0, 0, 0), rgb(255, 255, 255)); font-size: 10px;&quot;&gt;&lt;font face=&quot;Lucida Console&quot;&gt;775.501.4398&lt;/font&gt;&lt;/span&gt;&lt;/div&gt;" style="swimlane;whiteSpace=wrap;html=1;startSize=100;align=center;" parent="1" vertex="1">
          <mxGeometry x="890" y="640" width="200" height="200" as="geometry" />
        </mxCell>
        <mxCell id="h55l8Zkcb7cQgNLIwGVd-5" value="&lt;font style=&quot;font-size: 31px;&quot;&gt;&amp;nbsp;S3.04&lt;/font&gt;" style="text;html=1;align=left;verticalAlign=middle;whiteSpace=wrap;rounded=0;" parent="h55l8Zkcb7cQgNLIwGVd-4" vertex="1">
          <mxGeometry y="100" width="200" height="100" as="geometry" />
        </mxCell>
        <mxCell id="h55l8Zkcb7cQgNLIwGVd-6" value="Structural" style="text;html=1;align=center;verticalAlign=middle;whiteSpace=wrap;rounded=0;" parent="h55l8Zkcb7cQgNLIwGVd-4" vertex="1">
          <mxGeometry x="10" y="110" width="70" height="30" as="geometry" />
        </mxCell>
        <mxCell id="h55l8Zkcb7cQgNLIwGVd-7" value="" style="endArrow=none;html=1;rounded=0;exitX=0.5;exitY=1;exitDx=0;exitDy=0;" parent="h55l8Zkcb7cQgNLIwGVd-4" source="h55l8Zkcb7cQgNLIwGVd-5" edge="1">
          <mxGeometry width="50" height="50" relative="1" as="geometry">
            <mxPoint x="50" y="150" as="sourcePoint" />
            <mxPoint x="100" y="100" as="targetPoint" />
          </mxGeometry>
        </mxCell>
        <mxCell id="h55l8Zkcb7cQgNLIwGVd-8" value="&lt;div&gt;&lt;font style=&quot;font-size: 13px;&quot;&gt;Drawing&lt;/font&gt;&lt;/div&gt;&lt;div&gt;&lt;font style=&quot;font-size: 13px;&quot;&gt;Page&lt;/font&gt;&lt;/div&gt;&lt;div&gt;&lt;span style=&quot;font-size: 24px; background-color: transparent; color: light-dark(rgb(0, 0, 0), rgb(255, 255, 255));&quot;&gt;8 / X&lt;/span&gt;&lt;/div&gt;" style="text;html=1;align=center;verticalAlign=middle;whiteSpace=wrap;rounded=0;fillColor=default;" parent="1" vertex="1">
          <mxGeometry x="990" y="740" width="100" height="100" as="geometry" />
        </mxCell>
        <mxCell id="h55l8Zkcb7cQgNLIwGVd-9" value="&lt;pre&gt;* All slabs to use #4 Rebar&lt;/pre&gt;" style="text;html=1;align=center;verticalAlign=middle;whiteSpace=wrap;rounded=0;strokeColor=none;" parent="1" vertex="1">
          <mxGeometry x="45" y="610" width="240" height="30" as="geometry" />
        </mxCell>
        <mxCell id="h55l8Zkcb7cQgNLIwGVd-11" value="&lt;pre&gt;* Vibrated concrete for CMU cells on all vertical walls &lt;/pre&gt;" style="text;html=1;align=center;verticalAlign=middle;whiteSpace=wrap;rounded=0;strokeColor=none;" parent="1" vertex="1">
          <mxGeometry x="60" y="630" width="400" height="50" as="geometry" />
        </mxCell>
        <mxCell id="h55l8Zkcb7cQgNLIwGVd-13" value="" style="shape=image;verticalLabelPosition=bottom;labelBackgroundColor=default;verticalAlign=top;aspect=fixed;imageAspect=0;image=data:image/png,iVBORw0KGgoAAAANSUhEUgAAAkgAAAEuCAYAAAB1W+11AAAAAXNSR0IArs4c6QAAAARnQU1BAACxjwv8YQUAAAAJcEhZcwAADsMAAA7DAcdvqGQAACHCSURBVHhe7d0JdFTl+cfxJwtJBAIkICGQhAiIayEgiMjmAlJQQURUEKVQ6IFjLeIR4Y8LaOuGIqIW2SQUarQIArIvnqqgKEHiQlhUjJhChRJQNtnnP+/liZALAYZ7Z3KT+X7OmZN5nklOHhKS/ObOe98b4fMTAAAA/CZS3wIAAEARkAAAAGwISAAAADYEJAAAABsCEgAAgA0BCQAAwIaABAAAYENAAgDAQ77//nvZs2ePVqf6+OOPZfz48Vq55+eff5bnnntOHnvsMVmwYIF2T3XkyBHp06ePVsc988wzsn79eq3KBgISAAAeMXHiRGnSpInMnDlTO6e67777pF27dlq5wwSye+65R2rUqCGNGjWSefPmybJly/TRoo4ePSpZWVlaHbd06VLZtm2bVmUDAQkAgBK2a9cuK/RkZ2dL586dtXuqadOmSYsWLaROnTracUe3bt3k1VdflT/84Q/StWtXGTt2rFV/9NFH+h7hh4AEAEAJMqGnbt26MmTIEJkwYYJ2T2/EiBHWzU2ff/657Nix45TQZY5UnemltrKOgAQAQAlau3at7Ny5U9q2baud0zPv8/7777t+9GjJkiXSr18/rU4wL/W9/fbbWoUfAhIAACXo+eef13tnlpiYKOnp6Vq5Z+XKlVKzZk2tTqhdu7Y0aNBANm/erJ3joqKipEePHlodZ14eTEpK0qpsICABABDGTOAxQeh08vPzrfVRJ4uOjpbJkydrddywYcPksssu06psiPD56X0AAFDCevfuLW3atLEWTAfCrCWaPXu2VsUbOHCgVKtWTSuRyy+/3Dpr7nQB56abbpLhw4dbC8PDDUeQAAAoA8yRoNjY2LPeIiIi9COOS01NlYMHD2pV1JYtWyQhIUGr8MIRJAAAPOR8jyCdL/N5rr/+eunVq5d2TjCh6/DhwxIZGX7HUziCBABAGDNh7MMPP9TqhC+++EI6duwYluHIICABABDGzMaUK1as0OoEsxDbrEEKVwQkAADCmNk+wCzc/tvf/qad42ev5eXlyYABA7QTfliDBABACTLrf8xO1oXMwujy5csXWRx9yy23yLPPPqtVcJgL1ZoL4VaqVEmOHTtm7fBtTukPVwQkAABK0MaNG62F0IW2b98uF1xwgcTHx2tHpEqVKpKSkqJV8JigVlBQIJdccol2whcBCQAAwIY1SAAAADYEJAAAABsCEgAAgA0BCQAAwIaABAAAYENAAgAAsCEgAQAA2BCQAAAAbAhIAAAANgQkAAAAGwISAACADQEJAAAP+/3vf29dXf90+vfvL99//71W7srNzZVBgwZpVdS+ffukS5cuWpVNBCQAADzs/fffP21AatSokRWQ6tSpox13/fzzz5Kdna3VCb/88ovUqlVLZs2apZ2yiYAEAEApY8JRZmamZGRkaCc0TDiqXbu2FZ7KOgISAAClCOEoNAhIAACUEo0bN5bJkyeHPBzt3r1b0tLSwiYcGQQkAABKAROO3njjDesIUiiZcJSammodQQonET4/vQ8AAM7RmjVrJC8vT6vgueuuu6yAcv/998tFF12k3eDbsGGDTJ06VfLz82XatGnaDY6rrrpK0tPTtfIGAhIAAOdh3LhxsmzZMq2CZ+bMmXLDDTdIQkKCdkJj27Zt8vHHH8vtt9+uneAZMGCA3HjjjVp5AwEJAACPMkdWvvzySzlw4IBER0drN/j27NkjNWrUsF7OW7FihXbDC2uQAADwIBOOJk6cKBEREdoJDROOzD5HS5Ys0U54IiABAOAxheHILMwOpcJwZBZmhzsCEgAAHtKkSROZMGFCyMPR3r17pWbNmoQjRUACAMAjTDgaP368dQQplEw4Sk5Oto4g4TgCEgAAHkA48hYCEgAAJaygoEA+/fTTkIcjcyL7/v37CUenQUACAKCEVa1aNaSn8RcyZ8hVr15dK5yMgAQAAGBDQAIAALAhIAEAANgQkAAAAGwISAAAADYEJAAAABsCEgAAgA0BCQAAwIaABAAAYENAAgDAw+bMmSNRUVFahc7ll18uI0eO1Cr8RPjMhVgAAADwG44gAQAA2BCQAAAAbAhIAAAANgQkAAAAGwISAACADQEJAADAhoAEAABgE/KA9NNPP+k9AAAAbwp5QNqyZYvMnDlTKwAAAO8JeUC66qqr5K233iIkAQAAzyqRNUgzZswgJAEAAM8qsUXahCQAAOBVJRaQDEISAADwohINSAYhCQAAeE2Ez0/vh8SqVatk+PDhWp2Qk5Mjhw8floyMDImJidGue+68807p3bu3VuevXr16Urt2bddmzM3NlV27dknLli214z3M6I5169ZJQUGBtGrVSjvew4zuWL9+vezYsYMZHSoNM27YsEG2b98urVu31o73hOuM5nfF1KlTpU2bNtoJTMgD0v/+9z/5/PPPtSqqc+fO0r9/f+nQoYN23FOnTh2pX7++VucvOTlZnnvuOUlKStKOMyNHjpS1a9da30SvYkZ3jBo1ynoi8M9//lM73sOM7hgzZox89tlnkpWVpR3vYUZ3vPbaa/Lxxx9br4R41d///ndZsWJF2M14//33W38TWrRooZ0AmYDkFSkpKb6OHTv6ZsyYoR3vSU9P9+Xl5WnlXN++fX1169bVypuY0R0DBgyw/v94GTO6Y+DAgb60tDStvIkZ3fHwww/7atWqpZU3heuMGRkZPv+TKa0CV+JrkOzGjx/PmiQAAFCiPBeQDBZuAwCAkuTJgGQQkgAAQEnxbEAyCEkAAKAkeDogGYUhyZyuBwAAEAqeD0iGCUlfffWVVgAAAMFVKgKScffdd+s9AACA4Co1AQkAACBUCEgAAAA2BCQAAAAbAhIAAIANAQkAAMCGgAQAAGBDQAIAALAhIAEAANgQkAAAAGwISAAAADYRPj+9X+JSU1Nl5cqVkpKSoh3vSUxMlMGDB0tSUpJ2nJk4caJ8++23MnLkSO04t3DhQmnVqpVUrFhRO86E64yLFi2SFi1aSHx8vHacyczMlNzcXHnxxRe14xwzusPM2Lx5c6lcubJ2nJk2bZrk5OTISy+9pB3nmNEdS5YskaZNm0pCQoJ2nHnzzTdl9erVMnr0aO04F44zZmVlSXZ2tqszPvroozJlyhRp3769dgJDQApQZGSkxMXFSVRUlHacOXDggBw7dkzKly+vHef27t1rzRgdHa0dZ5jRvRmPHj0qFSpU0I5zzOgOt2c8ePCgHDlyhBkdCtaMsbGxUq5cOe04w4zenXHfvn0yYsQIeeKJJ7QTIBOQvMIfjHz5+flaeVN6erovLy9PK2/y/3LyLV++XCtvKg0z+n/wfcuWLdPKm5jRHTExMb758+dr5U3M6A5/gPPNmjVLK29iRndkZGT4cnJytAoca5AAAABsCEgAAAA2BCQAAAAbAhIAAIANAQkAAMCGgAQAAGBDQAIAALAhIAEAANgQkAAAAGwISAAAADYEJAAAABsCEgAAgA0BCQAAwMbVgHTttdfKxRdfXOT23nvv6aMAAAClg6sBKSsrSxYuXFjkdsMNN+ijAAAApYOrASk9PV3q1atX5FaxYkV9FAAAoHRgDRIAAICNqwHp0UcflQceeKDIbfXq1fooAABA6RDh89P7jmVmZsq+ffu0Ou6mm26S+vXra3VmqampsnLlSklJSdGO90RFRUmlSpUkOjpaO87s3btXDh8+LAkJCdpxbseOHdaMMTEx2nGGGZnRidIyY3x8vMTGxmrHGfN78NChQ8zoULBmNEs/4uLitOMMM3p3xp07d8rTTz8tQ4cO1U5gXA1ITpWGgFS5cmXp3bu3VKtWTTvOzJgxQ3744Qd5+OGHtePcggULpFWrVtYvKjeE64zmJANzZqb5nrvh3XfflU2bNsngwYO14xwzumPRokVyzTXXSJUqVbTjzJw5c2TDhg0yZMgQ7TjHjO5YvHixNG3aVBITE7XjzLx582Tt2rXn/Uf4dNyece7cuZKbmxt2M7788ssyefJk6dSpk3YCZAKSV/iDkS8/P18rb0pPT/fl5eVp5Vzfvn19devW1cqbmNEdAwYMsP7/eBkzumPgwIG+tLQ0rbyJGd3hf1Lmq1WrllbeFK4zZmRk+HJycrQKHIu0AQAAbAhIAAAANkELSOb1xEGDBsm9994rDRs2tF4DbNeunTz00EPWYwAAAF7lekDKycmxVrabxXW1a9e2QtK0adPklVdesRbaXXrppTJx4kRrEd+KFSv0owAAALzD1YC0ZMkSGTVqlGzbtk0mTZokDz74oDRu3FgaNGhg7bLdtm1b+dOf/mRdn23z5s3yxhtvyIcffqgfDQAA4A2uBqR//OMfMmzYMKlQoYJ2imdO+TXva44mAQAAeImrAWn//v1StWpVrc7O7IHz66+/agUAAOANrgakRo0ayfTp07U6uxdeeMF6+Q0AAMBLXA1ITzzxhBQUFEjXrl2tdUbmcgB25jIBZq2S2W1148aNMnz4cH0EAADAG1wNSMaIESOkR48e1gLstLQ0qVu3rvTt29cKRN27d5fk5GTrrLY+ffpYW7QDAAB4jesByTBHkMxp/lu3bpWlS5dKz549ZcyYMdbV/vfs2WMFJHM2GwAAgBcFJSAVioiIkDp16sh1110nzZo1kyuvvFIfAQAA8K6gBiQAAIDSiIAEAABgE7KA1L9/f1m3bp1WAAAA3hWygPTll1/K7t27tQIAAPAuXmIDAACwifD56f2gat68uYwePdraD6k4qampsnLlSklJSdGO9yQmJsrgwYMlKSlJO86Yi/p+8803MnLkSO04t3DhQmnVqpVUrFhRO86Y6+V9++23YTfjokWLpEWLFtYlcdyQmZkpubm58uKLL2rHOWZ0x+LFi63fTeYakW4wW5l88cUX1sW73cKM7jAbFTdt2lQSEhK040xWVpZkZ2dbf9/cYma8+uqrpUqVKtpxpjTM+Oabb8rq1atdndFsLTRlyhRp3769dgJDQApQZGSkxMXFSVRUlHacOXDggBw7dkzKly+vHefMbuVmxujoaO04w4zuzXj06NFzupjzuQrHGQ8ePChHjhxxfcbY2FgpV66cdpwJ1oyl4evI99o5ZnTHvn37rM2rzVU+zosJSKHgD0Y+f/jR6vT8wciXn5+vlTelp6f78vLytPIm/y8n3/Lly7XyptIwo/8H37ds2TKtvIkZ3RETE+ObP3++Vt7EjO7wBzjfrFmztPImZnRHRkaGLycnR6vAsQYJAADAhoAEAABgQ0ACAACwCVlAMtdhc+ssFgAAgGAKWUAyp2FfccUVWgEAAHgXL7EBAADYEJAAAABsCEgAAAA2rgakn376Se8BAACUXq4GpI4dO0q/fv1ky5Yt2gEAACh9XA1Ia9askWbNmlm3gQMHahcAAKB0cX0NUt++feU///mPNGnSRDsAAAClS9AWad977716DwAAoHQJWkA6kyeeeEIOHDgge/fulaeeekq7AAAA3lAiAenVV1+1AtK+fftk7Nix2gUAAPCGEglIAAAAXuZqQHryySelU6dO0qVLlzPezJGjnj17Su/evWX37t360QAAAN7gakDq0KGDLFmyROrXry+9evUq9hYTEyPdu3eXO++8U+Li4vSjAQAAvCHC56f3XXPHHXdI5cqV5Y033tBOUQkJCZKXlycHDx6Uhg0b/rYDd2pqqqxcuVJSUlKs2ouioqKsf5t56wazUP3w4cPW18QtO3bskEqVKllB1A3MyIxOlJYZ4+PjJTY2VjvOMKO3Z6xYsaJrT87NKyKHDh3y9Izma1iuXDlXt99ZvHixXHHFFa79vf7xxx/lhx9+kPLly2vHuZ07d8rTTz8tQ4cO1U5gghKQjMmTJ8tjjz0mCxYskIyMDO0eZ/4jldaAZMKReWmwWrVq2nFmxowZ1n+Khx9+WDvOma9569atrR8wN5SGGd955x3ZvHmzqzMuXLhQrr32Wut77oZZs2bJd999J4MHD9aOc+E447vvviubNm1ydcZFixZZG9y69Uduzpw5snHjRnnkkUe045yZ8ZprrpEqVapox5nZs2fLN9984+qM5nvdvHlz12YMxtfR/GFv2rSpJCYmaseZuXPnSm5u7nn/ET4dt2c0823YsEGeffZZ7Tg3adIkufnmmyU5OVk7zph/89KlS+Xuu+/WjnMvv/yylUXM0p/zYgJSsGzdutXnD0e+Z555RjvH+X94fLt27fL5g5EvKSlJuz6fPxj58vPztfKm9PR0nz/caeVc3759fXXr1tXKm5jRHQMGDLD+/3gZM7pj4MCBvrS0NK28iRnd4X9S5qtVq5ZW3uR/kuvr2rWrVt4UjBlN/sjJydEqcEE9i80kS/9wsmfPHmnVqpV1uPRk5lBanz59tAIAAPCGkJzm/8wzz1iH9kxgMi+FFDKvVZvHAAAAvCRk+yC1bNnSOpJkApJZwBcZGbJPDQAAEJCQp5Tp06fLe++9Z53VAgAA4EUlchjn6quv1nsAAADew+tcAAAANgQkAAAAGwISAACADQEJAADAhoAEAABgQ0ACAACwISABAADYEJAAAABsCEgBKigosG4AAKDsIiAF6Ndff7VuAACg7CIgAQAA2BCQAAAAbCJ8fnq/xKWmpsrKlSslJSVFO94TFRUlQ4cOlcsuu0w7zowfP142bNggo0eP1o5zixYtkpYtW0rFihW148y4ceNk48aNYTfjkiVLJC0tTWJjY6VChQpSvXp1feT8TJo0Sb7++msZM2aMdpwzMzZv3lzi4+O140y4zrh06VJp1qyZVKpUSTvOZGZmSk5OjrzyyivacY4Z3bFs2TLrguluzTh16lRZtWqVvPbaa9pxzszYtGlTqVy5snacyc7OltWrV7v6dXznnXfkxhtvlMTERO04M3/+fJk3b5785S9/0Y5zQ4YMkSlTpki7du20ExgCUoAeiYiQaf4/mLv9QckNhw4dkmPHjklcXJx2nNu/f7/1R92EOTeE84yRkccPspq3MTEx1v3zZWY8evSoXHDBBdpxLhhfR2Z0jhm9PaP5WY6OjtaOM6VhRvO70XxPLr30Uu04t2bNGutv9oUXXqgdZ7Zt22bdypUrpx3nzHrh4cOHW7fzYgKSV/iDkS8/P18rb/pXRITvszlztPIm/w+Vb/ny5Vp5U2mY0f+D6vM/k9PKm5jRHf4/Rj7/M1itvIkZ3eF/EuWbNWuWVt7EjO7IyMjw5eTkaBU41iABAADYEJAAAABsCEgAAAA2BCQAAAAbAhIAAIANAQkAAMCGgAQAAGBDQAIAALAhIAEAANgQkAAAAGwISAAAADYhD0jmYnQAAABeFvKAlJ+fL3PmzNEKAADAe0IekJo0aSKZmZmEJAAA4FklsgZp9uzZhCQAAOBZJbZIm5AEAAC8qsQCkkFIAgAAXlSiAckgJAEAAK+J8Pnp/ZDIzs6Wp556SqsTVq9eLTt37pTWrVtLXFycdp27fdMmiT98WKuiUlNTpVmzZlqdm/XPPSe5yckiFSpox7mZdevK3nLltHJu/vz51mL4pKQk7XhPaZmxcePGkmy+3x5lZmzUqJHUrFlTO95TWr6ODRs2lJSUFO14DzO6w8z4u9/9TtLS0rTjPczojo8++kiysrLk5ptv1k5gQh6Qtm/fLqtWrdKqqEceeUQ6deokLVu21I5zlf0BKbKYgHThhRdK/fr1tTo3H7ZpI/v79ZNKF12kHed+8QekYy4GpLFjx8pdd90lVatW1Y73lIYZX3/9denWrZtUq1ZNO97DjO4YP368dOnSRapXr64d72FGd0yYMEFuueUWTz+pYEZ35ObmSs+ePaVWrVraCUzIA9LZ3HbbbdK7d2/p3LmzdrxlXsWK0vDf/5bUpk21AwAAypoSX4Nk5/U1SYcPH5Y9e/ZoBQAAvMgc0fzpp5+0CpznApLh5ZBkAtLevXu1AgAAXjRu3LiyF5AMzm4DAAAlxbMBySAkAQCAkuDpgGQUhqQNGzZoBwAAILg8H5AME5LWrFmjFQAAQHCVioBk9OjRQ+8BAAAEV6kJSAAAAKFCQCqDzLbqW7du1QoAAASKgFQGrVu3Tg4dOqQVAAAIFAEJAADAhoAEAABgQ0ACAACwISABAADYEJAAAABsCEgAAAA2BCQAAAAbAhIAAIANASlAL0ZGypH4eK0AAEBZREAKUE5EhBwrV04rAABQFhGQAAAAbAhIAAAANgQkAAAAGwISAACADQEJAADAhoAEAABgQ0ACAACwISABAADYEJBcNH36dL3nXaVhRgAAShoBySX33nuv1K9fXytvKg0zAgDgBQQkF/Ts2VPat28vGRkZ2vEeE468PiMAAF5BQHLIhKMOHTpYb72qMBx5eUYAALyEgORAYTi65557tOM9hCMAAAJHQDpPJhQRjgAAKJsISOfhqaeekptvvtnT4WjQoEGEIwAAzlOEz0/v4xxERkZaoaNXr17a8Z5bb71VnnzySRk8eLB2AAAIL40aNZLMzMzzPjmJgBSAHj16yNtvvy1XXXWVVK5cWbvekpubKwUFBfLJJ59IkyZNtAsAQHghIIWICUfmyMx9990n//73v6Vly5b6iHcUrjl6/PHHrRnT09P1EQAAwovTgMQapHNQGI66d++uHe9hQTYAAO4hIJ2FCUWEIwAAwgsB6QxMKOrcuTPhCACAMENAKkZhOLr77ru14z2EIwAAgoOAdBo5OTmeD0dff/014QgAgCAhIJ1GjRo1ig1H5jFzK2nVqlUrNhx98MEHkpKSohUAAAgUAek0kpOT9d6poqOjrduZ/Otf/9J7p7d06VI5dOiQVufnTDPWrl37rDMW2rx5s7V3UqH9+/dbWwQAABDOCEguMi/NXXzxxfLKK69YweN0Xn/9dZk1a5bExMRoJzh69+4td911l1bFmzdvnjVTof/+97/Sr18/rQAACE8EJJcMGzZM/vjHP8rChQtl586d8uuvv+ojRY0YMcK6BdPcuXPliy++kAsuuEA7AAAgEAQkhw4fPmwdNYqPj5c1a9ZIvXr19JFTmSM1Xbt2lerVq2vHfUeOHJHbb79dHnzwQe0AAIBAEZAc2rVrl3XU6P/+7/+0U7zt27fLyJEjtQqODh06WPMAAIDzR0ByyBwNOtNRo5MNHz5cKlasqJX7XnrpJWnQoIG0bdtWO2cXGRkpUVFRWolERESc8wJvAADKKgJSGbF+/XqZNGmSjBo1SjvnZsCAATJmzBitROrUqSMbNmzQCgCA8ERA8pCtW7dap9yf6VZceOGlNQAA3ENA8pDx48dbp+af6danTx997xPMUaChQ4da+x8BKOrYsWN6DwDOHQHJQ5588klZu3btGW+ffPKJvvdx7733nnXkqX///toBygbz87B69Wqtzt1XX30lQ4YMsZ5QmDWCjz/+uD4i0qtXL3nnnXe0ck9mZqZ06dJFbr31VvnrX/+q3VPl5eXJFVdcodVxl156abH7pgEoOQSkUsxsMWBO6b/vvvtk5syZRW7mD4v5pVtYf/PNN/pRgLeZIz5mOwwTZFasWKHdczNw4EDrZIiqVatab83L0k8//bT12MaNG+Wzzz6Tbt26WbVb3nzzTevzjBs3Tt5++21ry48XX3xRHy3K/NsOHjyo1XGm9vl8WgHwCgJSKbZlyxa55ZZb5K233jrl9umnn1rPVgvrdevW6UcB3mUu01OuXDm55557pF27dto9N+b6gzfccIO1U/0jjzwil19+uVx44YX6aHA2af3555/lz3/+sxWIkpKSpEKFCtYeZGaHei7ZA5RuBKRSLD09XWbPni0zZsw45WZ+aV933XW/1bfddpt+FOBNgwYNssLN0aNHrSOjgTBnX5pQ0rlzZ+0U9f3331v7kBV3EerzNXXqVOsIrp1ZK2h+NgGUXhE+ju0G5KKLLrKeGZpwYuzZs8e69trJzGnzPXr0KPLs9aabbpKmTZtq5T7zy9gc5i9krgtn/iiYlyoM88y6efPm1n3Ai95//3258cYbtToemMyJB2fbFf6BBx6wzuLs2LGjdkLHrDsy1y60f27zcp4Ja/azTjdt2iTt27eX7777Tjun/k4B4I5GjRpZ6wMzMjK0ExiOIDlk8qW57trJN/NNMRswntwzlwAJpkOHDhX5fAkJCdaz6lB9fsCpk8PRuVq1apXk5+f/FlDMS15m/Z1ZuxSK535ff/21XHLJJVqdYHo1a9aUX375RTvHJScnW2uVTjZhwoSgXn4IwPnhCFKAeLYHhMa5HEG6//77rbPCGjZsaD1TNGewmV9p5mitObvTLJqOi4vT93aX+TzXXnutLF++/LS7z5swZI7k1qhRQzsAQokjSADCljlRwRw1evXVV611P+aIUnZ2towdO1aysrKskxj279+v71088zL5ZZdddtabOVJbyFyWx7yEtnfvXu0UZcLTuXxuAN7EEaQAnekIktmn6Morr9QKgBPncgQpNjZW7rzzTpk2bZp2inrhhRes0+7Ptk/Yjh07rNvZmJfOTDAqZNYZmQ1eT3eUyLwfv16BknOmI0hmneDpXh4/GUeQXGL2Gvryyy+1AhBsZtNUs3bH/AIsjtl3aN++fVoVr1q1ataGjWe7nRyODPPy3UcffaTVCWbfsTZt2mgFwEvMCSGLFi3SqngEJBeY0+jNXkNm7xYAoWFewjIh5Ey7bZugYp5FBkvbtm2LnD1aaO7cudKkSROtAHiFCUfPPvustans2RCQHDLhyGxuZ94CCC1ziv3o0aO1KsqEFLOnktniIljMvkrPP//8KS/PFbc/EoCSUxiOli1bpp0zIyA5UBiOgnFtJyDc/PDDD9a6gMLbrl27rM0dT+6ZRdknM0eQzKVEzHXXzCaT69evl88//9xae/Tuu+/KlClT9D2Dw6xvMi/x3XHHHdbnNUeTzDPTYcOGSYMGDfS9AJS0QMORwSLtABUu0jZnykyfPp1wBLikU6dORa4ZuHPnTuv0+UqVKmlH5Prrr5fXX39dqxPM6fSTJ0+WH3/8UapUqWKd5m92kw8Vs53A4sWLreuqtW7dmotHAx5QuEi7oKAg4HBkEJACZALS4MGD5YMPPrACEgAA8B4TkAYMGGD9rQ40HBkEpACZs2bMs9P58+drBwAAeE29evWkatWq8tlnn2knMASkAJgU2r17d+vUXnMpEQAA4D3mBI0DBw5Y64S7deum3cAQkM6RCUdmryOTRBcsWCBpaWn6CAAA8AqzBGbUqFHWOkazBqlx48b6SGAISOegMByZJMq12AAA8KaTz1bjWmxBZkJRYTgCAADedD6n8p8JAekMTCgye6sQjgAA8C63w5FBQCpGYTgy+5sAAABvCkY4MghIp7F161bCEQAAHrd79+6ghCODgHQa27ZtKzYcmUsIJCYmagUAAEqKufxQceHooYceklq1amkVOM5iAwAAsOEIEgAAgA0BCQAAwIaABAAAYENAAgAAsCEgAQAA2BCQAAAAbAhIAAAANgQkAAAAGwISAACADQEJAADAhoAEAABgQ0ACAACwISABAADYEJAAAABsCEgAAAA2BCQAAAAbAhIAAIANAQkAAMCGgAQAAGBDQAIAALAhIAEAANgQkAAAAIoQ+X9zN9JB7XbYvwAAAABJRU5ErkJggg==;movable=0;resizable=0;rotatable=0;deletable=0;editable=0;locked=1;connectable=0;" parent="1" vertex="1">
          <mxGeometry x="33" y="142" width="584" height="302" as="geometry" />
        </mxCell>
        <mxCell id="tbvszCSb3UBkYFBP10Zx-2" value="" style="rounded=1;whiteSpace=wrap;html=1;movable=0;resizable=0;rotatable=0;deletable=0;editable=0;locked=1;connectable=0;" parent="1" vertex="1">
          <mxGeometry x="650" y="80" width="440" height="390" as="geometry" />
        </mxCell>
        <mxCell id="tbvszCSb3UBkYFBP10Zx-3" value="" style="shape=image;verticalLabelPosition=bottom;labelBackgroundColor=default;verticalAlign=top;imageAspect=0;image=data:image/png,iVBORw0KGgoAAAANSUhEUgAAAb8AAAFGCAYAAAD6jpGjAAAAAXNSR0IArs4c6QAAAARnQU1BAACxjwv8YQUAAAAJcEhZcwAADsMAAA7DAcdvqGQAAB4uSURBVHhe7d0JcJXV+cfxJyELBIEgQmoIIRQEccIgS1QQqQbZRPkLuIyKllaC4gaK2mENZRFEEGWpBUGtCIIwUrUgYCAzQhpllYQChWLUsMkmm4EscP85Lyeyh+WeC+97z/czc6f3ee4lnoab/Hjf95zzhviKCQAAFgnV/wsAgDUIPwCAdQg/AIB1CD8AgHUIPwCAdQg/AIB1CD8AgHUIPwCAdQg/AIB1CD8AgHUIPwCAdQg/AIB1CD8AgHUIPwCAdQg/AIB1CD8AgHUIPwCAdQg/AIB1CD8AgHUIPwCAdQg/AIB1CD8A8KCsrCz97Nzy8/P1M/OOHTumn52fek9RUZGuRHw+nxQUFOjq6iP8AMBDjhw5Ivfee68MGzZMd842ZswY6d+/v67MeuGFF6R9+/bOY9q0abp7tilTpshzzz2nK5Hvv/9ebrrpJl1dfYQfAHiECpsqVarIU089JZ9++qnunu2vf/2rpKam6sqcHj16SJs2bWTRokXyySefyLfffivz58/Xr3oL4QcALqdOGXbs2FG++uorycvLk3vuuUe/crY333xTUlJSpEKFCrpjxocffuicSlVHnYr6+hMmTHBqNT6vIfwAwOVU6KlAUwF0IbNnz5YhQ4boypwZM2ZIt27ddHXSE088IXPmzNGVdxB+AOBy6lTjfffdp6vSZWZmSvny5XVlTlpamrRs2VJXJ916662Snp6uK+8g/AAApdqyZYskJCRImTJldOek5s2by549e3R1kjpN+9JLL+lKpHr16jJ9+nRdXX2EHwCgVDt27JCkpCRdnS4sLEzWr1+vq5Ouv/56qVu3rq5EypYt6xwlugXhBwAWURNUVDCV9rj//vv1u0+IioqSTZs26ep0FStWPC3kvCLE58VpOgBgMbWAPDIy8rRF5Bdr3759F1xsHhERIddee62uRDZv3uysG1TLG86klj2odYULFy7UHW8g/ADAY/wJv8sVExMj2dnZUq1aNd05QS1m/+GHH0pddO9GnPYEAFzQgw8+KCtXrtTVSR9//LEkJyfryjsIPwDABbVt21YmT56sqxPURJjt27d7Mvw47QkALnfgwAHZuHGjrkSOHz8uLVq0kH//+9+6c4LaO9P0zi6nevfdd2Xbtm3OmsNDhw45O7yMGDFCbrjhBv0O7yD8AMDlvvnmG+ndu7euTlDLC87cKPpvf/ubNG7cWFeB8c4778jq1audhfRqj9H69evrV7yF8AMAWIdrfgAA6xB+AADrEH4AAOsQfgAA6xB+AADrEH4A4DFbt26VSZMm6eps//3vf/Uz85YuXers53kuv/zyi37mfoQfAHiMWmj+/vvv6+p0DRo0kJo1a+rKPLWwfsmSJbo6ae/evdK0aVNduR/hBwBBQgWf2mtT3TvvSlLBV69ePeemt15B+AFAECgJvsTERN25MkqC71x3c3czwg8API7gu3SEHwB4GMF3edjbEwAM2rVrlxQWFuoqMNasWSODBg2SvLw8ZzNrFUJXivrv7dy5U+bOnevc3DaQ1A10w8LCdGUW4QcABt15553yv//9T1eBUVBQ4BxxVa1aVcLDw3X3yjh48KAcPnxYYmNjdSdwFi9eHLBgJ/wAwGPq1Knj3FJo7dq1unNlqFOd8fHx8vzzz8vIkSN115u45gcAHqKu8Q0ZMkTKlSunO1dGyTU+dbo1GBB+AOARJZNbateurTtXhtcnt5wL4QcAHsCsTrMIPwBwOYLPPMIPAFzsagXf/v37gzb4FMIPAFxq4MCBVyX4lOTk5KANPoXwAwCXevrpp69K8CmrV6/Wz4IT4QcALlW9enX9DKYRfgAA6xB+AADrEH4AAOsQfgAA6xB+AADrEH4AAOsQfgAA6xB+AADrEH4AAOsQfgAA6xB+AADrEH4AAOsQfgAA6xB+AADrEH4AAOsQfgAA6xB+AADrEH4AAOsQfgAA6xB+AADrEH4AAOsQfgAA6xB+AADrEH4AAOsQfgAA6xB+AADrEH4AAOsQfgAA6xB+AADrEH4AAOsQfgAA6xB+AADrEH4AAOsQfgAA6xB+AADrEH4AAOsQfgAA6xB+AADrEH4A4DFhYWFSoUIFXV1ZZcuWlXLlyunKu0J8xfRzAACscN4jv6ZNm0pBQYGuAAAIHqUe+anD2wMHDkhkZKTuAADgfaVe8zt69KhUqlRJ8vPzdQcAAO+74IQXAhAAEGwuesKLOvV56NAhiYiI0B0AALzpopc6qCM/NbWWSTAAAK8775HfTz/9JF9++aWuTnruuefksccek8aNG7tuIkxUVJQ8/vjjznM1zhtuuMGZtONWb7/9tjzyyCNSrVo13XEfL4xx/Pjx8tBDD0lMTIzuuA9jNEONsXPnzlK9enXdcR/GaMaqVaukb9++UqtWLd0x67zhl52dLRMnTtTV6SZNmiSPPvroVVtkeT7q2uTrr7/uPI+OjpYOHTq4boynmjx5srRr107i4+N1x328MsbWrVsH7IfEBMZohhpjcnKy1KlTR3fchzGaMXv2bOehxhkQKvwuVVxcnC8sLMxXUFCgO+6TkJDgy8nJ0ZU7qe/h0qVLdeVOXhhjeHi4Ly0tTVfuxBjNiIiI8M2bN09X7sQYzUhMTPQVH4TpyrzL3t6sOFikfPnyUlhYqDsAAHjDZYefoia/EIAAAK/xK/wUFYBqoklRUZHuAADgbn6Hn6KO/NQu3wQgAMALjISfQgACALzCWPgpKgDVfaYAAHAzo+EHAIAXEH4AAOsQfgAA6xB+AADrEH4AAOsQfgAA6xB+AADrEH4AAOsQfgAA6xB+AADrEH4AAOsQfgAA64So27nr5xetRo0akpmZKXFxcbrjPiEhIRIaai7b1bdJPUx+zePHjzNGAxijGYzRDMZohhrj4MGDJTU1VXfMCtrwi42NlSlTphgb46BBg2TlypUyf/583fFfVlaW1KtXTyIjI3XHP+pDsmLFCuNjvPHGGyUiIkJ3/BOIMWZnZzvfR1NjHDp0qGRkZMiCBQt0x3+M0QzTYxwxYoSkp6fLokWLdMd/jNGM+++/X2bNmiVJSUm6Y5gKv0tVHCi+3NxcXblTQkKCLycnR1f+6969u6927dq6cifGaEbPnj2dz4+bMUYzevXq5YuPj9eVO9k6xsTERF9xSOvKPHPHqAAAeAThBwCwDuEHALAO4QcAsA7hBwCwDuEHALAO4QcAsA7hBwCwDuEHALAO4QcAsA7hBwCwDuEHALBO6CuvvCLqsWbNGt0CACC4hcbExIh6lC1bVrcAAAhuoS+//LKoR/369XULAIDgxjU/AIB1QhcuXCjqsWPHDt0CACC4hbRt29annrz66quSnJzsNC+kRo0akpmZKXFxcbrjPlFRUc7/n+joaN3xz9KlS2XPnj3SqVMn3fHfkiVLnFv0V6hQQXf8s2zZMtm9e7fRMS5evNgZY8WKFXXHP4EYY3p6ujRp0sTYGDMyMuTnn3+Wzp07647/GKMZaoyNGjUy9nOtfo9t375dunTpojv+U2O8+eabpXLlyrrjn0CN0e3fx7lz58qHH35o9GueKkTdzl0/v2heCL+wsDCJj4+XcuXK6Y5/1A/xkSNHJCEhQXf8t379eud7aSr8du3a5YyxZs2auuM/r4xRfRZN/dJWY8zLyzP+d80Y/afGWL16dalUqZLu+Ef9Q+zw4cNSq1Yt3fHfhg0bJDY21tVj9ML3cdOmTTJx4kTp0aOH7himwu9SFf+A+HJzc3XlTsU/cL6cnBxduVNxQPuKjyh15U5eGGN4eLgvLS1NV+7EGM2IiIjwzZs3T1fuxBjNSExM9GVnZ+vKPCa8AACsQ/gBAKwTWlhY6Fz8nDBhggwcOFCGDBki48aNk7S0NP0WAACCS6ialTR06FDJz8+XyMhI5yLoli1bnAuNZcqUkW7dusnBgwf12wEA8L7Q//znP86U+z59+siAAQPkySeflLffftuZZqqOCu+66y7p2rWrM2sLAIBgUOo1v9DQUPnjH//oBKN6AAAQDC5qwstNN93kLGAEACAYXFT4qcWGbl7QDgDApbhg+M2aNUtGjRolw4cP1x0AALwtNCQkRB544AHp3bu3TJ06VYYNGyZjxoxx9sVUtzlSE18++ugjY3vAAQBwtYX6fD5JSUlx9mTbtm3bb0se1Jq/tWvXysyZM43t6wgAgBs4pz3btm0rvXr1kkGDBjlr/p577jlniUNERITzJgAAgslFTXgBACCYEH4AAOucFX4zZszgru4AgKB2VviNHz9efvzxR10BABB8OO0JALAO4QcAsE6Iup27fu5o1qyZjB07Vm677TbdOVuNGjUkMzPT1VueqcX7amNuU9S3ST1Mfs3jx48zRgPUGNXft3qYwBgZoz+8MkaTXy9QYxw8eLCkpqbqjllBG36xsbEyZcoUY2NUayBXrlwp8+fP1x3/ZWVlSb169ZxNBUxQH5IVK1YYHWN2drbccMMNUrZsWd3xTyDGuG7dOqlTp46xMaq1rhkZGbJgwQLd8R9jNMP0GEeMGOHczHvRokW64z/1M1O3bl1jP9eBGqP63WNqLXcgxnj//fc722smJSXpjmEq/E5VHHq+4mDT1bkVB4ovNzdXV+6UkJDgy8nJ0ZX/unfv7qtdu7au3IkxmtGzZ0/n8+NmjNGMXr16+eLj43XlTraOMTEx0Vcc0royz9wxKgAAHkH4AQCsQ/gBAKxzVvjNmzdPmjRpoisAAILPWeF37bXXSnh4uK4AAAg+nPYEAFiH8AMAWIfwAwBYh/ADAFgn1OR2NAAAeEHoe++9p58CAGCH0JkzZ+qnAADYodRrft98840cO3ZMCgsLZfny5boLAIC3lRp+7du3l0OHDsm+ffukY8eOugsAgLcx2xMAYJ3QqVOnyvkeBQUFMm3aNJkxY4YcPXpU/xEAALwtVN2R/XyPoqIi567b6g7m6rofAADBIGTu3Lk+dbv4c6lcubLk5ORIfn6+NGzYUHbu3On0a9So4YRjXFycU7tRVFSUJCcnS3R0tO74Z+nSpbJnzx7p1KmT7vhvyZIlzi36K1SooDv+WbZsmezevdvoGBcvXiy33HKLq8eYnp7u3ImkYsWKuuOfjIwM+fnnn6Vz58664z/GaIYaY6NGjYz9XKvfY9u3b5cuXbrojv8YoxnF2SQffvih0a95qpDi4PNVq1ZNJk2apFsneTn8wsLCJD4+XsqVK6c7/lE/xEeOHJGEhATd8d/69eud76WpYNm1a5czxpo1a+qO/7wyRvVZNPVLW40xLy/P+N81Y/SfGmP16tWlUqVKuuMf9Q+xX3/9lTH6KRBj3LRpk0ycOFF69OihO4b5ihUHn6/4F5xv3bp1qvxN8b8KfL/88ouvOPR8MTExuuvzFf+A+HJzc3XlTsV/Cb7i4NaVOxUHtK/4iFJX7uSFMYaHh/vS0tJ05U6M0YyIiAjfvHnzdOVOjNGMxMREX3Z2tq7Mc2Z7qmRVpygefvhhGT16tBOKpypTpozExsbqCgAAb/ttqYM6tVV85Oec3mvVqpUz07PEddddJ6tXr9YVAADedtY6vzfeeEP69+/vXONRu7sAABBszrnIXc2SVJNcnn/+eWMTHQAAcItSd3gZPny4c70PAIBgUmr4AQAQjAg/AIB1CD8AgHUIPwCAdQg/AIB1CD8AgHUIPwCAdQg/AIB1CD8AgHUIPwCAdQg/AIB1CD8AgHUIPwCAdULU7dz184umbnybmZkpcXFxuuM+ISEhEhpqLtvVt0k9TH7N48ePM0YD1BjV37d6mMAYGaM/vDJGk18vUGMcPHiwpKam6o5ZQRt+sbGxMmXKFGNjHDRokKxcuVLmz5+vO/7LysqSevXqSWRkpO74R31IVqxYYd0Ys7OzpW7dusbGOHToUMnIyJAFCxbojv8YoxmmxzhixAhJT0+XRYsW6Y7/GKMZnTp1kpkzZ0pSUpLuGKbC71IVB4ovNzdXV+6UkJDgy8nJ0ZX/unfv7qtdu7au3IkxmtGzZ0/n8+NmjNGMXr16+eLj43XlTraOMTEx0Vcc0royz9wxKgAAHkH4AQCsQ/gBAKxD+AEArEP4AQCsQ/gBAKxD+AEArEP4AQCsQ/gBAKxD+AEArEP4AQCsc97wU5uJHjt2TFcAAASP84af2nlf7fhNAAIAgk2ppz2LiooIQABA0LngNT8CEAAQbC5qwosKwIiICOfOugAAeN1FhZ+ijvzCw8MJQACA54WoO9rq56fJzc095y3pU1JSJDo6Wvr16yeVK1fWXXeIioqSRx55xHlerVo16dOnj1x33XVO7a9JkybJ5s2bZfTo0brjPozRjHfffVc2btwoY8aM0R33YYxmvP/++5KdnS1vvvmm7riPrWNMTU2VTz75RJo3b647Zp03/LKysmTcuHG6Ot3UqVOla9euzrVAN6lUqdJvP2jNmjWTOnXqGBujmv26a9cu6dChg+64D2M0Y9WqVbJjxw659957dcd9GKMZq1evlq1bt0rHjh11x33UGLdt2yb33Xef7rhPIMaovqbKmkaNGumOWecNvwsJDQ11ToWGhIToDgAA3nDR1/zOpK79lSlTRi4zOwNuw4YNUlBQoCsAAE667PBT3ByA99xzj2zfvl1XAACc5Ff4KSoA1SlQAAC8wkhqqSM/rv0BALzC2CEbAQgA8Aqj5ytVALINGgDA7YxfrFMTYAAAcDNmqgAArEP4AQCsQ/gBAKxD+AEArBO04ad2dzG5w8vHH38szzzzjK4AAF4WtOGndp4xee9BtU9oXl6ergAAXsZpTwCAdQg/AIB1CD8AgHUIPwCAdQg/AIB1CD8AgHUIPwCAdawMP3XrJQCAvawLP3W/wQEDBujKnKKiIv0MAOCvXr16yU8//aQr86wKPxVQkZGRMnz4cN0xY+DAgdzFHgAMWrJkiRw8eFBX5lkTfir4ypUrZ/wITQWfClRu4gsA3mFF+JUEX2Fhoe6YURJ8gTiNCgAInKAPPxV4BB8A4FRBHX5qckv58uUJPgDAaYI6/Fq1auXcisgkgg8AvC/Ed4UXvc2ZM0c+++wzXQWGuo/fjBkzpE2bNlKtWjXd9c/3338vGzZskPj4eGnQoIHuBkb//v3lxhtv1BUA2Ef9nlU3EU9MTNQds654+K1du1ays7N1ZZ6a3JKSkuIsZO/Xr5/UrVtXv+KfsWPHyt69e2XYsGG6EzitW7eWmJgYXQGAfYIu/AJJneKsUKGC5OfnS3h4uKSnp0uLFi30q5dPnepcv36987U/+OAD3QUABEqgwy9orvmpwCsJPpNKrvF17NhRdwAAXhcU4acCr1KlSgELPia3AEBw8Xz4lQTf0aNHdccMgg8Agpenw0/N6iT4AACXytPht3DhwvMGnwov9bhUkydPPmfwqdmXpmaOAgCuLk+HX/v27fWzs1WtWtV5XKrIkBD5c8uWsmrkSDmYk6O7Iu3atXOWTgAAvC8oJryY8t+PPpLYr7+W1aNHy/dz50r6U0/JkieflEMBvKcUAODKI/y0TR9/LHu++05aT5smt48aJeWqVZP/W7RIbklNlWUvviiHt27V7wQAeB3hVyzniy9kZ2am3F58xHema+Ljpe2sWfJZ69a6AwDwOsLP53NOdzYt5XpeaFiY3Nynj/xn0iTdAQB4mfXhd2jbNvllwwbZvnSp/G/2bOeR+9VXkr9//2+1evxa/L6fivsAAO+zJvyysrJkzJgxMmHChNOWRxzdvVvKlC0ru9escR4b09Ikqzjkio4ccerty5fLovfec675FRw6pP8UAMDLrAi/nJwcGTp0qFxzzTXOXR/uvfdeycvLc16r2qiRhJQpI41eekmavfaaHGjZUjLCwqT89dc7db2XX5YhxSEYk5QkNe6+2/kzAABvC/rw27hxo/Tt21dmz54tTz31lPTu3Vs+/fRT6dq1q36HyI2PP+7M9izNljlzpN5jj+kKAOBlQR9+S5culaZNm+rqhIoVK0qVKlVk5cqVTt3gmWfk8LZtsuH99536TH8qV06aDhwo5WNjdQcA4GVBH37R0dFy8OBBXZ3066+/Oq+VaD5ypOzbsEGOf/65JOzYIQUHDkjGq6/K8qeflhWFhRJ7xx36nQAArwv68HvwwQdly5YtsmzZMt0Ref3116Vhw4ZSp04d3TlBLW6vmpwsFePj5Zq4OLm+WTO57a23pFrLlvodAIBgEFR3cj9VrVq1nDu5JyQkOHWTJk3k559/lpCQELn55pvliy++cPoAAPfhTu4GPPDAA/Lss8/K9OnTZdq0aZKUlCSjio/yAAB2CvrwUzM8n3nmGfnzn/8sf/jDH+TOO++UQYMGSWFhobz11lv6XQAAmwR1+O3atUt27twpycnJunOSWurw9ddf6woAYJOgDr/Dhw9LaOi5/y+qO8CfaxYoACD4BXX4/f73v3e2Mtu/f7/unLR8+XKpX7++rgAANgn6a37q+l7Pnj3l1Emt6lSout43ePBg3QEA2MSKpQ5qJ5dXX31V4uPjnRA8dOiQfPDBB85OLwAA92GpgwFqe7MlS5ZISkqKvPDCC87engQfANjLivArcfvttzuL3QEAdrMq/AAAUAg/AIB1CD8AgHUIPwCAdQg/AIB1CD/AkNzcXJk1a5auLo66zZb6M3PmzDnndnubNm1y1qsGwtq1a527nJx6r8tzWbx4sXNPzBKBHBNwpRB+gAFjxoyR5s2bS79+/XTnwn744QfnbiPZ2dny7bffykMPPSRr1qzRr57Qtm1bZ8MG09LS0pybOqsxqIXEU6dO1a+cbcqUKbJixQpdiWRmZso//vEPXQHeRPgBfvjxxx/l1ltvlR07dsi6detk7969+pXS/fOf/3TCbt68eTJs2DB54403ZMGCBfLaa6/J6tWrnfeogFG34Sq5IbMpM2fOlLlz58qMGTNk4MCBMnHiROdobvTo0fodQPAj/IDLtHHjRiecxo8ff0nB8fnnnzvBpjZXP9OQIUN++1pq79lA7D87efJk5wbPp+rbt6/Mnz9fV0DwI/yAy5Sfn++cNrzlllt05+Jce+21zpHXuag7jaijSXUUOWnSJONHfVu3bpUKFSrIXXfdpTsnREdHy4EDB3476gSCHeEHXKaGDRvqZ5emRYsW+tnZ9uzZ44Sj2sy3TZs2umuOur5YWFioq9Op64vqet6Zfve73zmBWULtixsTE6MrwJsIP8BF/v73v0urVq10ZZ6atamuUZ5L1apVT5vVWWLs2LHSoUMHXYl06tTJmSwDeBnhB7jEgAEDnJmdvXv31p3zU7fmWrhw4QUfmzdv1n/ihMOHDzs3eD6XqKgoycvL0xUQ3Ag/wAVefPFFKSgokMcee0x3SqfCTx2RXehx5hq+0gIuLCzMufYH2MDK8FMTCQC3ePjhh6VmzZoyatQo3bmw0NBQZ2nEhR5/+tOf9J84QR1Z7tu3T1en++677yQuLk5XgHu98847+tnlsy787rjjDmnXrp2ugKtLfR67dOly2qlOtXRCHdkFgvrv/etf/9LV6dTs1cudxANcKer395133qmry2dV+KlZdiNGjHD+lQ1cbbVr13Y+j2qx+6leeuklOXbsmK7MUqc11S8PdZR3KrUE4ssvv3TCEXAr9dlVlwjUkiB/WRN+KvjUDLXSppkDV4I67Vi2bFn56quvrsrn8b777pO33npLVye899570qtXL10B7lMSfGpJjgkhvkCdX7nK1LUNtfmuWiRcEny33367fhXw36pVq5x9L0uoCSsfffSRs1/nqdTuKfHx8c5ztcZOrZl74oknpEyZMk7vTGqT6507d573dRPUZtXTp093xqU25FZHfN26ddOvAldfgwYNnH1n1ZpX08GnBH34qdlzaiIBwQfT1Jo4dfRWoqioyNkAulmzZrpzgrqmp9bQKUeOHLngptBNmjSRpKQkXQWO2kRb7SSj/oHI6U64TUn49enTx7kUYDL4lKAOvypVqsi4ceOc3fYBAN6hwk/tJpSamhqQ3Y6CNvwiIiIkJSVFGjdurDsAAK949tlnZeTIkRe16cPlCMrwU0d6ag9DtSXTNddco7sAAC9Qa1TVRuufffaZJCcn665ZQRd+KvjUjUUfffTR3ya8AAC8QZ3ifOWVV5zrfCUTXgIhqJY6lATfmRMOAADuVxJ8rVu31p3ACZrwU4FH8AGAN6nAu1LBpwRF+KnAU5v4EnwA4D0q8P7yl79cseBTPB9+JcF322236Q4AwCtKgu/uu+/WnSvD0+GXkZFB8AGAR61du/aqBJ/i6dme+/fvP+/9x9TGwIHcHgoA4J+r+Ts8aBe5AwBwPkG11AEAgItB+AEArEP4AQCsQ/gBAKxD+AEALCPy/zFNi8kIkWbQAAAAAElFTkSuQmCC;movable=0;resizable=0;rotatable=0;deletable=0;editable=0;locked=1;connectable=0;" parent="1" vertex="1">
          <mxGeometry x="671.18" y="110" width="397.64" height="330" as="geometry" />
        </mxCell>
        <mxCell id="tbvszCSb3UBkYFBP10Zx-4" value="" style="endArrow=none;dashed=1;html=1;dashPattern=1 3;strokeWidth=4;rounded=0;strokeColor=light-dark(#000000,#000000);" parent="1" edge="1">
          <mxGeometry width="50" height="50" relative="1" as="geometry">
            <mxPoint x="524" y="390" as="sourcePoint" />
            <mxPoint x="524" y="220" as="targetPoint" />
          </mxGeometry>
        </mxCell>
        <mxCell id="tbvszCSb3UBkYFBP10Zx-5" value="" style="endArrow=none;dashed=1;html=1;dashPattern=1 3;strokeWidth=4;rounded=0;strokeColor=light-dark(#000000,#000000);align=center;verticalAlign=middle;fontFamily=Helvetica;fontSize=11;fontColor=default;labelBackgroundColor=default;" parent="1" edge="1">
          <mxGeometry width="50" height="50" relative="1" as="geometry">
            <mxPoint x="555" y="390" as="sourcePoint" />
            <mxPoint x="555" y="220" as="targetPoint" />
          </mxGeometry>
        </mxCell>
        <mxCell id="tbvszCSb3UBkYFBP10Zx-6" value="" style="endArrow=none;dashed=1;html=1;dashPattern=1 2;strokeWidth=5;rounded=0;strokeColor=light-dark(#000000,#000000);align=center;verticalAlign=middle;fontFamily=Helvetica;fontSize=11;fontColor=default;labelBackgroundColor=default;" parent="1" edge="1">
          <mxGeometry width="50" height="50" relative="1" as="geometry">
            <mxPoint x="997" y="390" as="sourcePoint" />
            <mxPoint x="997" y="220" as="targetPoint" />
          </mxGeometry>
        </mxCell>
        <mxCell id="tbvszCSb3UBkYFBP10Zx-7" value="" style="endArrow=none;dashed=1;html=1;dashPattern=1 2;strokeWidth=5;rounded=0;strokeColor=light-dark(#000000,#000000);align=center;verticalAlign=middle;fontFamily=Helvetica;fontSize=11;fontColor=default;labelBackgroundColor=default;" parent="1" edge="1">
          <mxGeometry width="50" height="50" relative="1" as="geometry">
            <mxPoint x="1025" y="390" as="sourcePoint" />
            <mxPoint x="1025" y="220" as="targetPoint" />
          </mxGeometry>
        </mxCell>
        <mxCell id="tbvszCSb3UBkYFBP10Zx-11" style="edgeStyle=orthogonalEdgeStyle;rounded=0;orthogonalLoop=1;jettySize=auto;html=1;exitX=0.25;exitY=0;exitDx=0;exitDy=0;fillColor=#647687;strokeColor=light-dark(#314354,#060707);" parent="1" source="tbvszCSb3UBkYFBP10Zx-8" edge="1">
          <mxGeometry relative="1" as="geometry">
            <mxPoint x="510" y="380" as="targetPoint" />
            <Array as="points">
              <mxPoint x="481" y="380" />
            </Array>
          </mxGeometry>
        </mxCell>
        <mxCell id="tbvszCSb3UBkYFBP10Zx-20" style="edgeStyle=orthogonalEdgeStyle;rounded=0;orthogonalLoop=1;jettySize=auto;html=1;exitX=0.25;exitY=0;exitDx=0;exitDy=0;strokeColor=light-dark(#000000,#000000);" parent="1" source="tbvszCSb3UBkYFBP10Zx-8" edge="1">
          <mxGeometry relative="1" as="geometry">
            <mxPoint x="470" y="320" as="targetPoint" />
          </mxGeometry>
        </mxCell>
        <mxCell id="tbvszCSb3UBkYFBP10Zx-8" value="&lt;font face=&quot;Lucida Console&quot;&gt;&lt;b&gt;#4 Rebar&lt;/b&gt;&lt;/font&gt;" style="text;html=1;align=center;verticalAlign=middle;whiteSpace=wrap;rounded=0;fontColor=light-dark(#000000,#000000);strokeColor=light-dark(#000000,#000000);" parent="1" vertex="1">
          <mxGeometry x="440" y="417" width="70" height="16" as="geometry" />
        </mxCell>
        <mxCell id="tbvszCSb3UBkYFBP10Zx-13" value="&lt;pre&gt;* Offset each block&lt;/pre&gt;" style="text;html=1;align=center;verticalAlign=middle;whiteSpace=wrap;rounded=0;strokeColor=none;" parent="1" vertex="1">
          <mxGeometry x="60" y="700" width="160" height="50" as="geometry" />
        </mxCell>
        <mxCell id="tbvszCSb3UBkYFBP10Zx-14" value="&lt;pre&gt;* Standard CMU 8&quot; x 8&quot; x 16&quot;&lt;/pre&gt;" style="text;html=1;align=center;verticalAlign=middle;whiteSpace=wrap;rounded=0;strokeColor=none;" parent="1" vertex="1">
          <mxGeometry x="45" y="667.5" width="245" height="45" as="geometry" />
        </mxCell>
        <mxCell id="tbvszCSb3UBkYFBP10Zx-15" value="&lt;pre&gt;* Verticals should be +/- 12&quot; spaced&lt;/pre&gt;" style="text;html=1;align=center;verticalAlign=middle;whiteSpace=wrap;rounded=0;strokeColor=none;" parent="1" vertex="1">
          <mxGeometry x="50" y="735" width="290" height="45" as="geometry" />
        </mxCell>
        <mxCell id="tbvszCSb3UBkYFBP10Zx-17" value="" style="endArrow=none;dashed=1;html=1;rounded=0;strokeColor=light-dark(#000000,#000000);strokeWidth=4;dashPattern=1 3;align=center;verticalAlign=middle;fontFamily=Helvetica;fontSize=11;fontColor=default;labelBackgroundColor=default;" parent="1" edge="1">
          <mxGeometry width="50" height="50" relative="1" as="geometry">
            <mxPoint x="40" y="320" as="sourcePoint" />
            <mxPoint x="610" y="320" as="targetPoint" />
          </mxGeometry>
        </mxCell>
        <mxCell id="tbvszCSb3UBkYFBP10Zx-18" value="" style="endArrow=none;dashed=1;html=1;rounded=0;strokeColor=light-dark(#000000,#000000);strokeWidth=4;dashPattern=1 3;align=center;verticalAlign=middle;fontFamily=Helvetica;fontSize=11;fontColor=default;labelBackgroundColor=default;" parent="1" edge="1">
          <mxGeometry width="50" height="50" relative="1" as="geometry">
            <mxPoint x="60" y="280" as="sourcePoint" />
            <mxPoint x="630" y="280" as="targetPoint" />
          </mxGeometry>
        </mxCell>
        <mxCell id="tbvszCSb3UBkYFBP10Zx-19" value="" style="endArrow=none;dashed=1;html=1;rounded=0;strokeColor=light-dark(#000000,#000000);strokeWidth=4;dashPattern=1 3;align=center;verticalAlign=middle;fontFamily=Helvetica;fontSize=11;fontColor=default;labelBackgroundColor=default;" parent="1" edge="1">
          <mxGeometry width="50" height="50" relative="1" as="geometry">
            <mxPoint x="50" y="240" as="sourcePoint" />
            <mxPoint x="620" y="240" as="targetPoint" />
          </mxGeometry>
        </mxCell>
        <mxCell id="tbvszCSb3UBkYFBP10Zx-21" value="" style="endArrow=none;dashed=1;html=1;dashPattern=1 2;strokeWidth=5;rounded=0;strokeColor=light-dark(#000000,#000000);align=center;verticalAlign=middle;fontFamily=Helvetica;fontSize=11;fontColor=default;labelBackgroundColor=default;" parent="1" edge="1">
          <mxGeometry width="50" height="50" relative="1" as="geometry">
            <mxPoint x="700" y="320" as="sourcePoint" />
            <mxPoint x="1060" y="320" as="targetPoint" />
          </mxGeometry>
        </mxCell>
        <mxCell id="tbvszCSb3UBkYFBP10Zx-22" value="" style="endArrow=none;dashed=1;html=1;dashPattern=1 2;strokeWidth=5;rounded=0;strokeColor=light-dark(#000000,#000000);" parent="1" edge="1">
          <mxGeometry width="50" height="50" relative="1" as="geometry">
            <mxPoint x="700" y="280" as="sourcePoint" />
            <mxPoint x="1060" y="280" as="targetPoint" />
          </mxGeometry>
        </mxCell>
        <mxCell id="tbvszCSb3UBkYFBP10Zx-23" value="" style="endArrow=none;dashed=1;html=1;dashPattern=1 2;strokeWidth=5;rounded=0;strokeColor=light-dark(#000000,#000000);" parent="1" edge="1">
          <mxGeometry width="50" height="50" relative="1" as="geometry">
            <mxPoint x="708.82" y="240" as="sourcePoint" />
            <mxPoint x="1068.82" y="240" as="targetPoint" />
          </mxGeometry>
        </mxCell>
        <mxCell id="tbvszCSb3UBkYFBP10Zx-25" value="&lt;font face=&quot;Lucida Console&quot;&gt;&lt;b&gt;&lt;u&gt;Block Layout (East &amp;amp; West Elevations)&lt;/u&gt;&lt;/b&gt;&lt;/font&gt;" style="text;html=1;align=center;verticalAlign=middle;whiteSpace=wrap;rounded=0;fontFamily=Helvetica;fontSize=14;fontColor=default;" parent="1" vertex="1">
          <mxGeometry x="152.5" y="80" width="345" height="30" as="geometry" />
        </mxCell>
        <mxCell id="tbvszCSb3UBkYFBP10Zx-26" value="&lt;font face=&quot;Lucida Console&quot;&gt;&lt;b&gt;&lt;u&gt;Block Layout (North &amp;amp; South Elevations)&lt;/u&gt;&lt;/b&gt;&lt;/font&gt;" style="text;html=1;align=center;verticalAlign=middle;whiteSpace=wrap;rounded=0;fontSize=14;" parent="1" vertex="1">
          <mxGeometry x="677.57" y="80" width="391.25" height="30" as="geometry" />
        </mxCell>
        <mxCell id="tbvszCSb3UBkYFBP10Zx-28" style="edgeStyle=orthogonalEdgeStyle;rounded=0;orthogonalLoop=1;jettySize=auto;html=1;strokeColor=light-dark(#000000,#000000);" parent="1" source="tbvszCSb3UBkYFBP10Zx-27" edge="1">
          <mxGeometry relative="1" as="geometry">
            <mxPoint x="908.5" y="330" as="targetPoint" />
          </mxGeometry>
        </mxCell>
        <mxCell id="tbvszCSb3UBkYFBP10Zx-29" style="edgeStyle=orthogonalEdgeStyle;rounded=0;orthogonalLoop=1;jettySize=auto;html=1;exitX=0.75;exitY=0;exitDx=0;exitDy=0;strokeColor=light-dark(#000000,#000000);" parent="1" source="tbvszCSb3UBkYFBP10Zx-27" edge="1">
          <mxGeometry relative="1" as="geometry">
            <mxPoint x="990" y="360" as="targetPoint" />
            <Array as="points">
              <mxPoint x="949" y="360" />
            </Array>
          </mxGeometry>
        </mxCell>
        <mxCell id="tbvszCSb3UBkYFBP10Zx-27" value="&lt;font face=&quot;Lucida Console&quot;&gt;&lt;b&gt;#4 Rebar&lt;/b&gt;&lt;/font&gt;" style="text;html=1;align=center;verticalAlign=middle;whiteSpace=wrap;rounded=0;fontColor=light-dark(#000000,#000000);strokeColor=light-dark(#000000,#000000);" parent="1" vertex="1">
          <mxGeometry x="860" y="370" width="103" height="16" as="geometry" />
        </mxCell>
      </root>
    </mxGraphModel>
  </diagram>
</mxfile>
